<?xml version="1.0" encoding="UTF-8"?>
<svg version="1.1" xmlns="http://www.w3.org/2000/svg" width="400" height="200">
<path d="M0 0 C0 1.65 0 3.3 0 5 C13.2 5 26.4 5 40 5 C40 3.35 40 1.7 40 0 C45.3442319 -2.19495239 50.19905513 -3.65693337 56 -4 C57.23363281 -4.07927734 57.23363281 -4.07927734 58.4921875 -4.16015625 C66.29308662 -4.42018622 74.93110206 -3.53444897 82 0 C82 23.76 82 47.52 82 72 C70.88302193 69.77660439 70.88302193 69.77660439 67.0078125 68.89453125 C66.20085937 68.71599609 65.39390625 68.53746094 64.5625 68.35351562 C62.91267231 67.98732791 61.26425372 67.61474287 59.6171875 67.23632812 C58.41835938 66.97432617 58.41835938 66.97432617 57.1953125 66.70703125 C56.48391113 66.5469458 55.77250977 66.38686035 55.03955078 66.22192383 C52.75241323 65.97306005 51.18585313 66.32583448 49 67 C47.66666667 67.33333333 46.33333333 67.66666667 45 68 C45 66.68 45 65.36 45 64 C38.07 63.505 38.07 63.505 31 63 C28 56.25 28 56.25 28 54 C31.465 53.505 31.465 53.505 35 53 C34.505 51.02 34.505 51.02 34 49 C30.535 49.495 30.535 49.495 27 50 C26.505 46.535 26.505 46.535 26 43 C26.928125 42.443125 27.85625 41.88625 28.8125 41.3125 C33.3844904 37.99556579 34.63689698 35.60802766 35.875 30.125 C36.27650976 25.78213933 35.13147425 22.82195382 33 19 C30.08328262 15.51875667 27.23911662 13.36176204 22.703125 12.62890625 C17.11154143 12.47754173 13.22564642 13.15256671 8.62890625 16.44921875 C4.98853445 19.91499238 4.13517606 23.71582747 3.625 28.5625 C4.21237074 33.94673178 5.91864263 36.89349479 9.6875 40.75 C13.17377734 43.48106361 16.69617299 44.18375695 21 45 C21.495 48.465 21.495 48.465 22 52 C20.35 52.33 18.7 52.66 17 53 C17 53.99 17 54.98 17 56 C19.31 56 21.62 56 24 56 C24 57.98 24 59.96 24 62 C22.78868408 61.98428955 21.57736816 61.9685791 20.3293457 61.95239258 C-12.28228216 61.56765813 -43.03871121 62.85651537 -75 70 C-79.455 70.99 -79.455 70.99 -84 72 C-84 49.89 -84 27.78 -84 5 C-70.47 5 -56.94 5 -43 5 C-43 3.35 -43 1.7 -43 0 C-29.49930963 -4.86759585 -13.35487731 -6.67743866 0 0 Z M-24.9375 13.4375 C-28.87834947 15.5460726 -30.71722585 17.81661037 -32.44921875 21.90625 C-33.31503565 25.19758234 -32.88999307 27.75788241 -32 31 C-31.34 31.99 -30.68 32.98 -30 34 C-30.34415075 38.480217 -31.76055552 42.16353902 -33.5625 46.25 C-35.36802855 49.99705005 -35.36802855 49.99705005 -36 54 C-37.98 54 -39.96 54 -42 54 C-42 54.66 -42 55.32 -42 56 C-39.69 56 -37.38 56 -35 56 C-28.75176616 44.86654138 -28.75176616 44.86654138 -28 33 C-28.33 32.34 -28.66 31.68 -29 31 C-29.64060222 25.82942493 -29.89905059 22.19063457 -26.6875 17.9375 C-24 16 -24 16 -21 15 C-21.22816406 15.59167969 -21.45632812 16.18335938 -21.69140625 16.79296875 C-24.01549645 22.80685531 -24.01549645 22.80685531 -23 29 C-22.34 29.66 -21.68 30.32 -21 31 C-18.48952515 31.06546898 -18.48952515 31.06546898 -16 30 C-13.41464676 26.64861617 -12.21694478 23.0252789 -11 19 C-8.14166714 21.85833286 -8.19924227 24.01515461 -8 28 C-8.96278661 31.20928869 -9.76282415 33.30783554 -12.7734375 34.9921875 C-13.44632813 35.32476562 -14.11921875 35.65734375 -14.8125 36 C-20.97053144 39.43757023 -22.92985851 46.61706373 -25 53 C-25 53.99 -25 54.98 -25 56 C-17.41 56 -9.82 56 -2 56 C-2 55.34 -2 54.68 -2 54 C-8.6 53.67 -15.2 53.34 -22 53 C-20.69791667 49.94010417 -19.39583333 46.88020833 -18.09375 43.8203125 C-16.87947544 41.19338071 -16.87947544 41.19338071 -17 39 C-16.278125 38.938125 -15.55625 38.87625 -14.8125 38.8125 C-10.32365166 37.51572159 -7.96884775 34.62942577 -5.625 30.6875 C-4.75156324 26.93172191 -4.93151751 23.70606514 -6 20 C-7.90324013 17.05336759 -7.90324013 17.05336759 -10 15 C-10.99 15.33 -11.98 15.66 -13 16 C-14.25325285 18.78526449 -14.25325285 18.78526449 -15.1875 22.0625 C-15.53167969 23.16722656 -15.87585938 24.27195312 -16.23046875 25.41015625 C-16.61138672 26.69212891 -16.61138672 26.69212891 -17 28 C-18.32 28 -19.64 28 -21 28 C-20.35812082 22.86496656 -19.31727753 18.0056546 -18 13 C-21.37545042 11.87484986 -21.85568386 12.01193822 -24.9375 13.4375 Z " fill="#FCBD12" transform="translate(196,35)"/>
<path d="M0 0 C7.80089912 -0.26002997 16.43891456 0.62570728 23.5078125 4.16015625 C23.5078125 27.92015625 23.5078125 51.68015625 23.5078125 76.16015625 C12.39083443 73.93676064 12.39083443 73.93676064 8.515625 73.0546875 C7.70867187 72.87615234 6.90171875 72.69761719 6.0703125 72.51367188 C4.42048481 72.14748416 2.77206622 71.77489912 1.125 71.39648438 C0.32578125 71.22181641 -0.4734375 71.04714844 -1.296875 70.8671875 C-2.00827637 70.70710205 -2.71967773 70.5470166 -3.45263672 70.38208008 C-5.73977427 70.1332163 -7.30633437 70.48599073 -9.4921875 71.16015625 C-10.82552083 71.49348958 -12.15885417 71.82682292 -13.4921875 72.16015625 C-13.4921875 70.84015625 -13.4921875 69.52015625 -13.4921875 68.16015625 C-15.1421875 68.16015625 -16.7921875 68.16015625 -18.4921875 68.16015625 C-18.4921875 47.04015625 -18.4921875 25.92015625 -18.4921875 4.16015625 C-11.76133311 1.63608585 -6.89206683 0.44290712 0 0 Z " fill="#4FA429" transform="translate(254.4921875,30.83984375)"/>
<path d="M0 0 C13.86 0 27.72 0 42 0 C42.02094566 7.53811196 42.04098374 15.0761191 42.05175018 22.61423492 C42.05703983 26.12426493 42.0641132 29.63427095 42.07543945 33.14428711 C42.08834206 37.16780841 42.09322912 41.19130414 42.09765625 45.21484375 C42.10281754 46.47836166 42.10797882 47.74187958 42.11329651 49.04368591 C42.11337204 50.204814 42.11344757 51.36594208 42.11352539 52.56225586 C42.115746 53.59039902 42.11796661 54.61854218 42.12025452 55.67784119 C42 58 42 58 41 59 C39.05142749 59.40504988 37.09173103 59.75681883 35.12890625 60.0859375 C33.91396484 60.29476562 32.69902344 60.50359375 31.44726562 60.71875 C28.8928852 61.15025921 26.33820499 61.57999823 23.78320312 62.0078125 C17.35400907 63.11594474 11.1614687 64.36538394 4.96850586 66.43603516 C3 67 3 67 0 67 C0 44.89 0 22.78 0 0 Z " fill="#023D7B" transform="translate(112,40)"/>
<path d="M0 0 C0.64855957 0.31622314 1.29711914 0.63244629 1.96533203 0.95825195 C6.13396367 3.11560459 9.00491444 5.51489663 12.125 8.9375 C11.60035156 8.77894531 11.07570313 8.62039062 10.53515625 8.45703125 C8.81647816 7.93942603 7.09619128 7.4271545 5.375 6.91796875 C3.11741472 6.23689434 0.86776402 5.52917894 -1.375 4.80078125 C-34.93517682 -5.90261146 -71.09949367 -8.2917031 -106.125 -8.3125 C-107.15357117 -8.31317474 -108.18214233 -8.31384949 -109.24188232 -8.31454468 C-149.00050322 -8.27343441 -188.06846524 -3.97121772 -225.875 8.9375 C-225.875 8.2775 -225.875 7.6175 -225.875 6.9375 C-206.316306 -8.83957541 -176.97094138 -12.9688147 -152.875 -16.0625 C-151.97281738 -16.18109375 -151.07063477 -16.2996875 -150.14111328 -16.421875 C-102.47531554 -22.35252045 -43.81231351 -21.40105745 0 0 Z " fill="#22BBE6" transform="translate(301.875,122.0625)"/>
<path d="M0 0 C13.53 0 27.06 0 41 0 C41 19.14 41 38.28 41 58 C38.03 58 35.06 58 32 58 C29 51.25 29 51.25 29 49 C32.465 48.505 32.465 48.505 36 48 C35.505 46.02 35.505 46.02 35 44 C31.535 44.495 31.535 44.495 28 45 C27.67 42.69 27.34 40.38 27 38 C27.928125 37.443125 28.85625 36.88625 29.8125 36.3125 C34.3844904 32.99556579 35.63689698 30.60802766 36.875 25.125 C37.27650976 20.78213933 36.13147425 17.82195382 34 14 C31.08328262 10.51875667 28.23911662 8.36176204 23.703125 7.62890625 C18.11154143 7.47754173 14.22564642 8.15256671 9.62890625 11.44921875 C5.98853445 14.91499238 5.13517606 18.71582747 4.625 23.5625 C5.21237074 28.94673178 6.91864263 31.89349479 10.6875 35.75 C14.17377734 38.48106361 17.69617299 39.18375695 22 40 C22.33 42.31 22.66 44.62 23 47 C20.525 47.495 20.525 47.495 18 48 C18 48.99 18 49.98 18 51 C20.31 51 22.62 51 25 51 C25 52.98 25 54.96 25 57 C16.75 56.67 8.5 56.34 0 56 C0 37.52 0 19.04 0 0 Z " fill="#DF192F" transform="translate(195,40)"/>
<path d="M0 0 C5.28249431 5.28249431 6.26192639 11.03829755 6.32226562 18.24609375 C6.31904297 19.11363281 6.31582031 19.98117188 6.3125 20.875 C6.32861328 21.73480469 6.34472656 22.59460938 6.36132812 23.48046875 C6.36593974 29.55858233 5.86955341 35.74579214 1.65405273 40.52636719 C-3.17946103 44.78955256 -7.50152192 46.46047482 -13.953125 46.2421875 C-20.46894699 45.47123146 -24.0410947 42.33459859 -27.93359375 37.42578125 C-28.28550781 36.95527344 -28.63742187 36.48476562 -29 36 C-26.63707344 33.47411298 -25.33537489 32.11179163 -22 31 C-21.21625 31.804375 -20.4325 32.60875 -19.625 33.4375 C-16.79459229 36.20051705 -16.02935777 36.88562691 -12.1875 37.3125 C-8.2576956 36.92722506 -6.72416335 35.80428581 -4 33 C-4 32.01 -4 31.02 -4 30 C-5.485 30.495 -5.485 30.495 -7 31 C-13.88507392 31.73424739 -18.40457816 31.14061216 -24 27 C-28.7478153 21.87735717 -29.41064215 17.65675997 -29.34765625 10.86328125 C-28.80442954 6.38929052 -26.98492432 3.31930109 -24 0 C-16.35959103 -5.77689459 -7.78001895 -5.20362923 0 0 Z M-19 7 C-21.4915904 10.7373856 -21.45793285 12.57331583 -21 17 C-19.20437595 19.75329021 -17.94745078 21.52627461 -15 23 C-10.64807662 23.49267057 -8.70017992 23.51752429 -5.125 20.875 C-2.75670984 17.67084273 -2 15.97209416 -2 12 C-3.60837371 8.35999635 -5.51304189 5.94859424 -9 4 C-13.21907155 3.35091207 -15.60263395 4.52084099 -19 7 Z " fill="#25BCE6" transform="translate(392,139)"/>
<path d="M0 0 C0.99 0.66 1.98 1.32 3 2 C3.7425 1.360625 4.485 0.72125 5.25 0.0625 C9.71892288 -3.28919216 13.43917425 -3.46340215 19 -3 C24.24560398 -1.19590442 28.00996322 1.21594114 31 6 C32.00473743 9.11000031 32.11658894 11.94670233 32.09765625 15.203125 C32.09443359 16.1828125 32.09121094 17.1625 32.08789062 18.171875 C32.07532227 19.69554687 32.07532227 19.69554687 32.0625 21.25 C32.05798828 22.28125 32.05347656 23.3125 32.04882812 24.375 C32.03706088 26.91672573 32.02062011 29.45833319 32 32 C29.36 32 26.72 32 24 32 C23.99589111 31.39003174 23.99178223 30.78006348 23.98754883 30.15161133 C23.95452425 27.37094208 23.88387432 24.59243843 23.8125 21.8125 C23.80669922 20.85279297 23.80089844 19.89308594 23.79492188 18.90429688 C23.64794917 14.18484003 23.52587214 11.71854463 20.67578125 7.82421875 C18.04054777 5.65967328 18.04054777 5.65967328 14.375 6 C11.0357739 6.98940033 10.01643863 7.31874405 8 10 C7.49669238 12.41063442 7.49669238 12.41063442 7.48828125 15.10546875 C7.45283203 16.08837891 7.41738281 17.07128906 7.38085938 18.08398438 C7.35830078 19.10814453 7.33574219 20.13230469 7.3125 21.1875 C7.27833984 22.22326172 7.24417969 23.25902344 7.20898438 24.32617188 C7.12647358 26.8840066 7.05733428 29.44149723 7 32 C4.36 32 1.72 32 -1 32 C-1.03738281 30.69804687 -1.07476562 29.39609375 -1.11328125 28.0546875 C-1.17896674 26.32809743 -1.24541318 24.60153619 -1.3125 22.875 C-1.33505859 22.0190625 -1.35761719 21.163125 -1.38085938 20.28125 C-1.59557682 15.20611043 -2.05463185 11.32493169 -5 7 C-8.96944526 5.75035983 -11.0425723 5.58372709 -14.875 7.25 C-17.26175558 8.89978501 -17.26175558 8.89978501 -18 12 C-18.1464714 13.55266653 -18.24694074 15.10995662 -18.31640625 16.66796875 C-18.35830078 17.56064453 -18.40019531 18.45332031 -18.44335938 19.37304688 C-18.50233398 20.76620117 -18.50233398 20.76620117 -18.5625 22.1875 C-18.60568359 23.12787109 -18.64886719 24.06824219 -18.69335938 25.03710938 C-18.79938665 27.35792854 -18.90145029 29.67885325 -19 32 C-21.64 32 -24.28 32 -27 32 C-27.0878954 28.64600151 -27.14068879 25.2923036 -27.1875 21.9375 C-27.21263672 20.99455078 -27.23777344 20.05160156 -27.26367188 19.08007812 C-27.34022633 11.75636883 -26.47495843 6.93087183 -21.625 1.1875 C-14.63544309 -4.63713076 -7.90312073 -3.95156037 0 0 Z " fill="#24578C" transform="translate(122,138)"/>
<path d="M0 0 C3.53589089 0.43120621 6.14068232 1.06773593 9.375 2.625 C15.00630354 4.76101169 19.34270281 3.85229725 24.75 1.4375 C28 0 28 0 32 0 C32.309375 1.11375 32.61875 2.2275 32.9375 3.375 C33.82326483 6.7945155 33.82326483 6.7945155 35 9 C35.48927757 13.20778713 34.98756488 16.65779194 32.73046875 20.31640625 C28.82851488 24.11266386 23.21499641 25.81083217 18 27 C11.86686544 26.4523987 3.87361889 24.89469678 -0.59765625 20.390625 C-2.89509494 16.66860964 -3.58510945 13.29080267 -3 9 C-2.34 8.01 -1.68 7.02 -1 6 C-0.60986284 4.0103005 -0.26797351 2.00980131 0 0 Z " fill="#D9E2EB" transform="translate(117,69)"/>
<path d="M0 0 C0.33 0 0.66 0 1 0 C1 23.76 1 47.52 1 72 C-5.67172843 70.66565431 -12.33960807 69.32552146 -19 67.9375 C-19.84433594 67.76412109 -20.68867188 67.59074219 -21.55859375 67.41210938 C-22.36425781 67.24388672 -23.16992188 67.07566406 -24 66.90234375 C-24.721875 66.75273193 -25.44375 66.60312012 -26.1875 66.44897461 C-28 66 -28 66 -30 65 C-29.67 64.01 -29.34 63.02 -29 62 C-27.02 62 -25.04 62 -23 62 C-23 61.34 -23 60.68 -23 60 C-22.01 60 -21.02 60 -20 60 C-20 59.34 -20 58.68 -20 58 C-19.01 58 -18.02 58 -17 58 C-17 57.34 -17 56.68 -17 56 C-14 54 -14 54 -10.875 53.0625 C-9.92625 52.711875 -8.9775 52.36125 -8 52 C-6.94729537 49.36893239 -6.94729537 49.36893239 -7 48 C-11.84998024 46.38333992 -15.56690141 48.82279773 -20 51 C-25.86737216 54.42591529 -28.92037018 57.50115681 -31 64 C-31.99 64 -32.98 64 -34 64 C-33.58726322 58.73760609 -32.88050973 55.67627237 -29 52 C-26.71314896 50.84406436 -24.38681087 49.94571751 -22 49 C-21.67 48.34 -21.34 47.68 -21 47 C-21.66 46.34 -22.32 45.68 -23 45 C-21.906875 44.731875 -20.81375 44.46375 -19.6875 44.1875 C-16.38307337 43.12336261 -15.05039578 42.65345336 -13 40 C-14.98 39.67 -16.96 39.34 -19 39 C-18.67 38.01 -18.34 37.02 -18 36 C-17.01 36 -16.02 36 -15 36 C-15 36.66 -15 37.32 -15 38 C-9.28136948 36.71860673 -9.28136948 36.71860673 -5 33 C-5.66 32.34 -6.32 31.68 -7 31 C-6.02804687 30.44957031 -5.05609375 29.89914063 -4.0546875 29.33203125 C-1.65903244 27.33565204 -1.05088385 26.24627613 -0.41113281 23.14990234 C-0.18416172 19.65239083 -0.11745872 16.19230941 -0.125 12.6875 C-0.104375 11.46998047 -0.08375 10.25246094 -0.0625 8.99804688 C-0.01544067 5.99801432 0.00444446 3.00032593 0 0 Z " fill="#5AAA36" transform="translate(277,35)"/>
<path d="M0 0 C3.94515722 3.64318222 5.85812215 7.02331109 6.11352539 12.38183594 C6.10828857 13.24067383 6.10305176 14.09951172 6.09765625 14.984375 C6.09443359 15.91894531 6.09121094 16.85351562 6.08789062 17.81640625 C6.07532227 19.26853516 6.07532227 19.26853516 6.0625 20.75 C6.05798828 21.73355469 6.05347656 22.71710938 6.04882812 23.73046875 C6.03706483 26.15370791 6.02062684 28.57682273 6 31 C3.36 31 0.72 31 -2 31 C-2 30.34 -2 29.68 -2 29 C-2.55171875 29.32097656 -3.1034375 29.64195312 -3.671875 29.97265625 C-8.55288539 32.12652493 -14.38355526 31.9719463 -19.35546875 30.125 C-24.02804725 27.45996461 -27.39994309 24.21276401 -29 19 C-29.82083833 13.05599827 -29.53399376 8.01599114 -26 3 C-18.25405121 -4.95175902 -9.51801554 -6.50497498 0 0 Z M-20 8 C-21.55024464 11.10048928 -21.28992015 13.57894218 -21 17 C-19.20437595 19.75329021 -17.94745078 21.52627461 -15 23 C-10.68852575 23.48809142 -8.70053537 23.50255798 -5.125 20.9375 C-2.5446726 17.37057683 -1.84540744 15.4058879 -2 11 C-4.39534341 6.957858 -5.95398252 5.34233299 -10.4375 3.875 C-14.80429526 4.02822089 -16.67916436 5.23263696 -20 8 Z " fill="#24578C" transform="translate(227,139)"/>
<path d="M0 0 C3.4513398 3.26385961 5.87810487 6.46589191 6.11352539 11.36010742 C6.10828857 12.26607666 6.10305176 13.1720459 6.09765625 14.10546875 C6.09443359 15.08837891 6.09121094 16.07128906 6.08789062 17.08398438 C6.07532227 18.62022461 6.07532227 18.62022461 6.0625 20.1875 C6.05798828 21.22326172 6.05347656 22.25902344 6.04882812 23.32617188 C6.0370401 25.88417266 6.02058515 28.44205733 6 31 C3.36 31 0.72 31 -2 31 C-2 30.34 -2 29.68 -2 29 C-2.55171875 29.32097656 -3.1034375 29.64195312 -3.671875 29.97265625 C-8.55958899 32.12948306 -14.35866336 31.94177011 -19.35546875 30.16015625 C-24.48112421 27.30402178 -27.39174915 23.64405017 -29 18 C-29.83735553 12.32138206 -29.31644187 7.8141898 -26 3 C-18.2713707 -4.95264754 -9.49985703 -6.5124806 0 0 Z M-20 8 C-21.55024464 11.10048928 -21.28992015 13.57894218 -21 17 C-19.20437595 19.75329021 -17.94745078 21.52627461 -15 23 C-11.05203426 23.3724496 -8.66959967 23.34935635 -5.125 21.5 C-2.26639511 18.13693543 -1.84758785 15.3482291 -2 11 C-2.82645927 7.94210071 -3.77530781 7.17003734 -6.3125 5.25 C-12.11605988 2.55066982 -15.07932574 4.1976608 -20 8 Z " fill="#23578C" transform="translate(188,139)"/>
<path d="M0 0 C-0.15597656 0.59167969 -0.31195313 1.18335938 -0.47265625 1.79296875 C-1.98683598 7.87320033 -1.98683598 7.87320033 -1 14 C1.475 14.495 1.475 14.495 4 15 C6.46440486 11.1273638 8.25807076 7.23039958 10 3 C12.58355457 4.90958381 13.03701613 6.1401325 13.875 9.3125 C14.01924006 13.56758189 13.32570766 15.4713401 11 19 C9.05231411 20.75920016 7.4080666 21.83068311 4.99121094 22.83349609 C2.54534825 24.26634699 2.09234829 25.30048709 1.078125 27.9140625 C0.80387695 28.59936035 0.52962891 29.2846582 0.24707031 29.99072266 C-0.24647949 31.29468994 -0.24647949 31.29468994 -0.75 32.625 C-1.8225 35.38875 -2.895 38.1525 -4 41 C3.59 41 11.18 41 19 41 C19.495 40.01 19.495 40.01 20 39 C20 41.31 20 43.62 20 46 C15.44697103 46.28801125 10.89375131 46.57271882 6.34033203 46.85449219 C4.79437819 46.95061033 3.24847819 47.04759904 1.70263672 47.14550781 C-0.53143616 47.28685006 -2.76569008 47.42496176 -5 47.5625 C-5.68054443 47.60624756 -6.36108887 47.64999512 -7.06225586 47.69506836 C-11.71944439 47.97758059 -16.33705926 48.03642922 -21 48 C-21 45.69 -21 43.38 -21 41 C-17.535 40.505 -17.535 40.505 -14 40 C-12.79428057 37.09053687 -11.61371775 34.17150084 -10.4375 31.25 C-10.09525391 30.425 -9.75300781 29.6 -9.40039062 28.75 C-8.92182617 27.55117187 -8.92182617 27.55117187 -8.43359375 26.328125 C-7.98584595 25.22839355 -7.98584595 25.22839355 -7.52905273 24.10644531 C-6.72979601 20.92417167 -7.56709099 18.86581802 -9 16 C-9.53118252 11.08003072 -9.75105553 7.22672403 -7.125 2.9375 C-4.43866192 0.48819175 -3.66724623 0 0 0 Z " fill="#FCC42A" transform="translate(175,50)"/>
<path d="M0 0 C4.45272347 4.23258882 7.10106032 7.89995177 7.3125 14.1875 C7.20762355 20.05104713 5.58959046 24.48962054 1.33984375 28.609375 C-3.29333351 31.99625612 -7.63449944 32.77602499 -13.31640625 32.4765625 C-18.49786028 31.55642074 -22.17075757 29.38371535 -25.37890625 25.203125 C-28.19394481 20.29887664 -28.82901794 15.56478292 -28 10 C-26.20810842 4.62432525 -22.66858549 1.08227042 -18 -2 C-11.5470321 -4.08846054 -5.87159323 -3.30944346 0 0 Z M-18 8 C-20.32402951 11.20937409 -20.47570691 14.11506021 -20 18 C-18.20006226 20.69990662 -16.916227 22.5418865 -14 24 C-9.81855989 24.39447548 -7.69053952 24.45035186 -4.125 22.125 C-1.60135348 19.60135348 -1.06512297 18.73263343 -0.75 15.1875 C-1.03463934 11.55834844 -1.77785906 9.85703835 -4 7 C-8.93599137 3.54480604 -13.37928503 4.50324272 -18 8 Z " fill="#26BCE7" transform="translate(321,138)"/>
<path d="M0 0 C3.85476035 3.39586031 6.34003446 5.8746307 6.94482422 11.04858398 C7.01841084 14.27040946 6.97364324 17.46641871 6.875 20.6875 C6.85695312 21.80511719 6.83890625 22.92273438 6.8203125 24.07421875 C6.77335555 26.8212003 6.70769468 29.56640047 6.625 32.3125 C4.315 32.3125 2.005 32.3125 -0.375 32.3125 C-0.40078125 31.01054687 -0.4265625 29.70859375 -0.453125 28.3671875 C-0.50942701 26.64059244 -0.56677387 24.91403124 -0.625 23.1875 C-0.63917969 22.3315625 -0.65335938 21.475625 -0.66796875 20.59375 C-0.87955456 15.092519 -1.58306759 11.59635877 -5.375 7.3125 C-9.31195713 6.09562234 -11.3775297 5.89134587 -15.1875 7.5 C-18.01356897 9.8416 -19.16533219 11.86698014 -19.69384766 15.51074219 C-19.740979 16.67331543 -19.740979 16.67331543 -19.7890625 17.859375 C-19.82773437 18.70371094 -19.86640625 19.54804688 -19.90625 20.41796875 C-19.95265625 21.72701172 -19.95265625 21.72701172 -20 23.0625 C-20.03867187 23.95066406 -20.07734375 24.83882812 -20.1171875 25.75390625 C-20.21120873 27.9398998 -20.29686143 30.12589062 -20.375 32.3125 C-22.685 32.3125 -24.995 32.3125 -27.375 32.3125 C-27.55077261 28.4797557 -27.65634097 24.64806007 -27.75 20.8125 C-27.80027344 19.73484375 -27.85054687 18.6571875 -27.90234375 17.546875 C-28.02336883 10.93083735 -27.34991281 6.94330481 -23.04052734 1.82446289 C-16.48963554 -4.12242555 -7.58772992 -3.79386496 0 0 Z " fill="#174E86" transform="translate(36.375,137.6875)"/>
<path d="M0 0 C13.86 0 27.72 0 42 0 C42.02094566 7.53811196 42.04098374 15.0761191 42.05175018 22.61423492 C42.05703983 26.12426493 42.0641132 29.63427095 42.07543945 33.14428711 C42.08834206 37.16780841 42.09322912 41.19130414 42.09765625 45.21484375 C42.10281754 46.47836166 42.10797882 47.74187958 42.11329651 49.04368591 C42.11337204 50.204814 42.11344757 51.36594208 42.11352539 52.56225586 C42.115746 53.59039902 42.11796661 54.61854218 42.12025452 55.67784119 C42 58 42 58 41 59 C39.05142749 59.40504988 37.09173103 59.75681883 35.12890625 60.0859375 C33.91396484 60.29476562 32.69902344 60.50359375 31.44726562 60.71875 C28.8928852 61.15025921 26.33820499 61.57999823 23.78320312 62.0078125 C17.35400907 63.11594474 11.1614687 64.36538394 4.96850586 66.43603516 C3 67 3 67 0 67 C0 44.89 0 22.78 0 0 Z M1 1 C1 15.85 1 30.7 1 46 C1.99 46.33 2.98 46.66 4 47 C4.26296875 47.62261719 4.5259375 48.24523437 4.796875 48.88671875 C6.59466967 52.04453341 8.90588457 52.548913 12.25 53.8125 C13.36890625 54.25207031 14.4878125 54.69164062 15.640625 55.14453125 C21.35705046 56.60022564 25.87238948 54.90003976 31.25 52.8125 C32.28640625 52.42707031 33.3228125 52.04164062 34.390625 51.64453125 C37.72912223 49.54047835 38.1456038 47.76663692 39 44 C39.66 44 40.32 44 41 44 C41 29.81 41 15.62 41 1 C27.8 1 14.6 1 1 1 Z " fill="#245584" transform="translate(112,40)"/>
<path d="M0 0 C3.23991684 2.3801846 4.67236204 5.05748237 6.0625 8.8125 C6.4164612 12.779433 6.34554307 16.70898878 6.25 20.6875 C6.22969727 22.29238281 6.22969727 22.29238281 6.20898438 23.9296875 C6.17378624 26.55781511 6.12454693 29.18489194 6.0625 31.8125 C3.7525 31.8125 1.4425 31.8125 -0.9375 31.8125 C-0.96328125 30.51054687 -0.9890625 29.20859375 -1.015625 27.8671875 C-1.07192701 26.14059244 -1.12927387 24.41403124 -1.1875 22.6875 C-1.20167969 21.8315625 -1.21585937 20.975625 -1.23046875 20.09375 C-1.44205456 14.592519 -2.14556759 11.09635877 -5.9375 6.8125 C-9.87445713 5.59562234 -11.9400297 5.39134587 -15.75 7 C-18.57606897 9.3416 -19.72783219 11.36698014 -20.25634766 15.01074219 C-20.303479 16.17331543 -20.303479 16.17331543 -20.3515625 17.359375 C-20.39023438 18.20371094 -20.42890625 19.04804688 -20.46875 19.91796875 C-20.51515625 21.22701172 -20.51515625 21.22701172 -20.5625 22.5625 C-20.60117188 23.45066406 -20.63984375 24.33882812 -20.6796875 25.25390625 C-20.77370873 27.4398998 -20.85936143 29.62589062 -20.9375 31.8125 C-23.2475 31.8125 -25.5575 31.8125 -27.9375 31.8125 C-28.11327261 27.9797557 -28.21884097 24.14806007 -28.3125 20.3125 C-28.36277344 19.23484375 -28.41304687 18.1571875 -28.46484375 17.046875 C-28.58586883 10.43083735 -27.91241281 6.44330481 -23.60302734 1.32446289 C-17.07834182 -4.59863553 -7.27237712 -4.74085344 0 0 Z " fill="#164C85" transform="translate(266.9375,138.1875)"/>
<path d="M0 0 C0 3 0 3 -1.5 4.6875 C-1.995 5.120625 -2.49 5.55375 -3 6 C-2.34 6.66 -1.68 7.32 -1 8 C-1.99 8.33 -2.98 8.66 -4 9 C-4.33 9.99 -4.66 10.98 -5 12 C-7.3260857 12.38063221 -9.66055264 12.71269945 -12 13 C-12.33 12.67 -12.66 12.34 -13 12 C-11.68 12.99 -10.36 13.98 -9 15 C-9.99 15.33 -10.98 15.66 -12 16 C-12.33 16.99 -12.66 17.98 -13 19 C-16.43924329 22.71810085 -19.7072922 26.21712417 -24.5625 27.875 C-27.75214983 29.34714607 -28.534035 30.84817526 -30 34 C-30.70670728 36.69254991 -30.70670728 36.69254991 -31 39 C-30.01 39 -29.02 39 -28 39 C-27.896875 38.01 -27.79375 37.02 -27.6875 36 C-25.95925688 29.96953464 -20.14299506 26.9597107 -15 24 C-11.72948801 22.55351486 -8.58066831 21.29360204 -5 21 C-2.71484375 21.9453125 -2.71484375 21.9453125 -1 23 C-1.99 23.66 -2.98 24.32 -4 25 C-3.505 25.99 -3.505 25.99 -3 27 C-10.42857143 30.28571429 -10.42857143 30.28571429 -14 31 C-14 31.66 -14 32.32 -14 33 C-14.99 33 -15.98 33 -17 33 C-17 33.66 -17 34.32 -17 35 C-17.99 35 -18.98 35 -20 35 C-20 35.66 -20 36.32 -20 37 C-20.886875 37.061875 -21.77375 37.12375 -22.6875 37.1875 C-26.74903297 38.18372507 -28.21044932 39.97798676 -31 43 C-31.66 43 -32.32 43 -33 43 C-33 41.68 -33 40.36 -33 39 C-34.65 39 -36.3 39 -38 39 C-38 38.67 -38 38.34 -38 38 C-36.35 38 -34.7 38 -33 38 C-32.8453125 37.0409375 -32.8453125 37.0409375 -32.6875 36.0625 C-31.08171247 28.90944647 -28.94556498 20.56376061 -24 15 C-23.34 15 -22.68 15 -22 15 C-21.75765625 14.25105469 -21.5153125 13.50210938 -21.265625 12.73046875 C-18.68724423 7.16785097 -12.9767514 3.79763653 -7.4375 1.5625 C-6.2309375 1.2840625 -6.2309375 1.2840625 -5 1 C-5 1.66 -5 2.32 -5 3 C-3.35 2.01 -1.7 1.02 0 0 Z " fill="#D7EACF" transform="translate(274,60)"/>
<path d="M0 0 C3.125 2.0625 3.125 2.0625 5 4 C4.43628586 7.26954202 3.50037734 8.82575883 1 11 C0.46375 10.690625 -0.0725 10.38125 -0.625 10.0625 C-3.54568567 8.75587747 -5.789252 8.13105094 -9 8 C-11.74716387 9.77039449 -13.53145922 11.06291844 -15 14 C-15.15123831 15.5195764 -15.24881693 17.04472502 -15.31640625 18.5703125 C-15.35830078 19.46621094 -15.40019531 20.36210937 -15.44335938 21.28515625 C-15.48267578 22.22230469 -15.52199219 23.15945312 -15.5625 24.125 C-15.60568359 25.06988281 -15.64886719 26.01476562 -15.69335938 26.98828125 C-15.79959072 29.32537092 -15.90163176 31.6625683 -16 34 C-18.64 34 -21.28 34 -24 34 C-24.0878954 30.64600151 -24.14068879 27.2923036 -24.1875 23.9375 C-24.21263672 22.99455078 -24.23777344 22.05160156 -24.26367188 21.08007812 C-24.33164108 14.57769074 -23.90436086 9.46777512 -19.5703125 4.29296875 C-12.95757688 -0.76488039 -8.13520122 -1.90710455 0 0 Z " fill="#275A8E" transform="translate(89,136)"/>
<path d="M0 0 C2.30871858 1.41671367 4.00056432 2.6464917 5.75 4.6875 C4.50453595 8.42389216 3.11595047 8.87506513 -0.25 10.6875 C-0.765625 10.171875 -1.28125 9.65625 -1.8125 9.125 C-4.28098409 7.39954887 -4.28098409 7.39954887 -7.75 7.625 C-11.36758871 8.38986445 -11.36758871 8.38986445 -13.421875 11.13671875 C-15.78253962 15.7218558 -15.91579073 19.47932198 -16 24.5625 C-16.02964844 25.44164062 -16.05929687 26.32078125 -16.08984375 27.2265625 C-16.16005559 29.37972545 -16.20734881 31.53361485 -16.25 33.6875 C-18.56 33.6875 -20.87 33.6875 -23.25 33.6875 C-23.36701204 30.00027073 -23.43752045 26.31352458 -23.5 22.625 C-23.53351563 21.58666016 -23.56703125 20.54832031 -23.6015625 19.47851562 C-23.68451244 12.94620792 -23.20620681 8.96480999 -19.25 3.6875 C-13.13774716 -1.05261445 -7.45663067 -3.01133162 0 0 Z " fill="#19B8E5" transform="translate(357.25,136.3125)"/>
<path d="M0 0 C2.5 0.25 2.5 0.25 4.5 2.25 C4.22181474 4.59054876 3.87687284 6.92330225 3.5 9.25 C3.36325453 12.03072023 3.38264857 14.80629029 3.40234375 17.58984375 C3.4037587 18.35680069 3.40517365 19.12375763 3.40663147 19.91395569 C3.41218234 22.3385119 3.42472537 24.76297219 3.4375 27.1875 C3.44252136 28.84179553 3.44708315 30.49609253 3.45117188 32.15039062 C3.46213562 36.18363012 3.47936576 40.21679886 3.5 44.25 C0.86 44.25 -1.78 44.25 -4.5 44.25 C-4.5 31.91666667 -4.5 19.58333333 -4.5 7.25 C-4.54125 6.425 -4.5825 5.6 -4.625 4.75 C-4.44860299 1.2220599 -3.49348911 0.34934891 0 0 Z " fill="#0A437F" transform="translate(54.5,125.75)"/>
<path d="M0 0 C0.66 0.33 1.32 0.66 2 1 C1.938125 1.9075 1.87625 2.815 1.8125 3.75 C2.02315801 7.40140544 2.45492876 8.45492876 5 11 C6.64142963 12.0409066 8.30712215 13.04504326 10 14 C12 16 12 16 12.1953125 17.9453125 C12.13020833 19.96354167 12.06510417 21.98177083 12 24 C7.4306741 26.35836175 3.02995384 26.70082249 -2 26 C-6.0370939 24.13097505 -7.63885333 22.5755775 -10 18.8125 C-11.264517 13.99152892 -11.04671695 10.55394521 -9 6 C-6.47639547 2.9745423 -3.75746249 1.2524875 0 0 Z M-1 8 C-2.05082025 11.76543923 -2.3391456 13.3759721 -0.4375 16.875 C1.87369545 19.30600519 1.87369545 19.30600519 5.25 19.3125 C6.1575 19.209375 7.065 19.10625 8 19 C8.66 20.32 9.32 21.64 10 23 C10.87436418 21.26424351 10.87436418 21.26424351 11 19 C8.39334909 14.82935855 5.11142114 12.59198289 1 10 C0.34 9.34 -0.32 8.68 -1 8 Z " fill="#E23044" transform="translate(213,50)"/>
<path d="M0 0 C0 10.1 0 10.1 -3 14 C-6.1875 15.3125 -6.1875 15.3125 -9 16 C-7.68 16.33 -6.36 16.66 -5 17 C-6.874753 21.12445659 -8.82380677 23.82380677 -12 27 C-12 27.99 -12 28.98 -12 30 C-12.79792969 30.42925781 -13.59585938 30.85851562 -14.41796875 31.30078125 C-17.27041305 32.78943992 -17.27041305 32.78943992 -17.92578125 35.91796875 C-18.05339844 36.99691406 -18.18101562 38.07585937 -18.3125 39.1875 C-18.45300781 40.27417969 -18.59351563 41.36085937 -18.73828125 42.48046875 C-18.82464844 43.31191406 -18.91101563 44.14335938 -19 45 C-19.33 45 -19.66 45 -20 45 C-21.21017164 33.54530603 -22.06416473 24.2935309 -16 14 C-15.27683594 12.71996094 -15.27683594 12.71996094 -14.5390625 11.4140625 C-11.64814867 6.68764783 -8.95535948 3.53273929 -4 1 C-3.01 1 -2.02 1 -1 1 C-0.67 0.67 -0.34 0.34 0 0 Z " fill="#B7DAA8" transform="translate(260,47)"/>
<path d="M0 0 C3.1822638 2.40437709 4.69832768 4.21230005 6.125 7.9375 C5.98265735 11.42489494 5.07444673 13.3094962 2.66015625 15.8515625 C0.0980207 17.62395745 -1.992232 17.83222775 -5.05859375 17.58203125 C-8.8001617 16.4603137 -10.14799711 14.28581158 -12 11 C-12.14971147 6.65836732 -11.72194213 4.80444981 -8.8125 1.5625 C-5.43724821 -0.31263988 -3.7992366 -0.71235686 0 0 Z " fill="#06407D" transform="translate(136,54)"/>
<path d="M0 0 C1.41791408 0.45445964 2.83428046 0.91374944 4.25 1.375 C5.43335937 1.75785156 5.43335937 1.75785156 6.640625 2.1484375 C9 3 9 3 13 5 C13 10.94 13 16.88 13 23 C3.72265625 20.16796875 3.72265625 20.16796875 1 19 C0.67 18.01 0.34 17.02 0 16 C0.66 15.67 1.32 15.34 2 15 C2.23428313 10.2102679 2.23428313 10.2102679 0 6 C-0.125 2.8125 -0.125 2.8125 0 0 Z " fill="#09427E" transform="translate(119,71)"/>
<path d="M0 0 C0.25 5.625 0.25 5.625 -2 9 C-2.16699232 12.12521833 -2.16699232 12.12521833 -2 15 C-1.34 15.33 -0.68 15.66 0 16 C-0.33 16.99 -0.66 17.98 -1 19 C-2.9609375 19.94921875 -2.9609375 19.94921875 -5.375 20.6875 C-6.16648438 20.93886719 -6.95796875 21.19023438 -7.7734375 21.44921875 C-10 22 -10 22 -13 22 C-13 16.39 -13 10.78 -13 5 C-10.339375 3.7625 -10.339375 3.7625 -7.625 2.5 C-6.62726563 2.0359375 -5.62953125 1.571875 -4.6015625 1.09375 C-2 0 -2 0 0 0 Z " fill="#08427E" transform="translate(147,71)"/>
<path d="M0 0 C-0.99 0.99 -1.98 1.98 -3 3 C-2.67 3.66 -2.34 4.32 -2 5 C-9.42857143 8.28571429 -9.42857143 8.28571429 -13 9 C-13 9.66 -13 10.32 -13 11 C-13.99 11 -14.98 11 -16 11 C-16 11.66 -16 12.32 -16 13 C-16.99 13 -17.98 13 -19 13 C-19 13.66 -19 14.32 -19 15 C-20.65 15 -22.3 15 -24 15 C-24.33 13.35 -24.66 11.7 -25 10 C-8.91167192 -2.45070978 -8.91167192 -2.45070978 0 0 Z " fill="#BADBAB" transform="translate(273,82)"/>
<path d="M0 0 C0.66 0 1.32 0 2 0 C2 5.61 2 11.22 2 17 C3.959375 16.38125 5.91875 15.7625 7.9375 15.125 C9.03964844 14.77695313 10.14179688 14.42890625 11.27734375 14.0703125 C14.12878804 13.29975705 14.12878804 13.29975705 15 11 C14.01 10.67 13.02 10.34 12 10 C11.8125 7.1875 11.8125 7.1875 12 4 C12.99 3.01 13.98 2.02 15 1 C14.67 3.97 14.34 6.94 14 10 C14.99 9.67 15.98 9.34 17 9 C18.21869929 6.49552484 18.21869929 6.49552484 19 4 C20.42079436 6.95998825 19.91092767 8.27216546 18.875 11.4375 C16.00726083 16.11272266 11.21699192 17.40346907 6.2890625 19.25 C1.13618501 20.42500294 -2.98497976 19.14159796 -7.875 17.4375 C-8.65617187 17.16808594 -9.43734375 16.89867188 -10.2421875 16.62109375 C-10.82226562 16.41613281 -11.40234375 16.21117188 -12 16 C-12 15.34 -12 14.68 -12 14 C-7.89583836 14.57267372 -4.9327865 15.4268854 -1 17 C-0.67 11.39 -0.34 5.78 0 0 Z " fill="#CFDAE6" transform="translate(132,76)"/>
<path d="M0 0 C2 2 2 2 2 6 C1.34 6 0.68 6 0 6 C0 7.32 0 8.64 0 10 C-0.99 10.495 -0.99 10.495 -2 11 C-1.67 11.99 -1.34 12.98 -1 14 C1.01508358 14.73323796 1.01508358 14.73323796 3 15 C2.8125 16.8125 2.8125 16.8125 2 19 C1.1853125 19.4125 0.370625 19.825 -0.46875 20.25 C-3.26458137 21.80128453 -3.26458137 21.80128453 -3.92578125 24.91796875 C-4.05339844 25.99691406 -4.18101562 27.07585937 -4.3125 28.1875 C-4.45300781 29.27417969 -4.59351563 30.36085938 -4.73828125 31.48046875 C-4.82464844 32.31191406 -4.91101563 33.14335938 -5 34 C-5.33 34 -5.66 34 -6 34 C-7.38088706 20.92942548 -7.56625428 11.34938143 0 0 Z " fill="#CFE6C4" transform="translate(246,58)"/>
<path d="M0 0 C2.5 0.25 2.5 0.25 4.5 2.25 C4.46712417 4.97869407 3.93602229 7.5466618 3.5 10.25 C1.19 10.25 -1.12 10.25 -3.5 10.25 C-3.5 21.47 -3.5 32.69 -3.5 44.25 C-3.83 44.25 -4.16 44.25 -4.5 44.25 C-4.5 31.91666667 -4.5 19.58333333 -4.5 7.25 C-4.54125 6.425 -4.5825 5.6 -4.625 4.75 C-4.44860299 1.2220599 -3.49348911 0.34934891 0 0 Z " fill="#7797B9" transform="translate(54.5,125.75)"/>
<path d="M0 0 C0.33 0.99 0.66 1.98 1 3 C4.3 2.67 7.6 2.34 11 2 C8.85016141 6.29967718 8.7071822 6.46065921 4.5625 7.9375 C1.46085227 9.21201335 0.17007846 9.79271688 -2 12.4375 C-2.98678879 14.96614628 -3.61643186 17.315023 -4 20 C-3.01 20 -2.02 20 -1 20 C-0.34 18.68 0.32 17.36 1 16 C1 19 1 19 -1.375 21.6875 C-4 24 -4 24 -6 24 C-6 22.68 -6 21.36 -6 20 C-7.65 20 -9.3 20 -11 20 C-11 19.67 -11 19.34 -11 19 C-9.35 19 -7.7 19 -6 19 C-5.896875 18.360625 -5.79375 17.72125 -5.6875 17.0625 C-4.37251255 11.20482864 -2.32014254 5.5326476 0 0 Z " fill="#D5E9CC" transform="translate(247,79)"/>
<path d="M0 0 C3.1822638 2.40437709 4.69832768 4.21230005 6.125 7.9375 C5.98265735 11.42489494 5.07444673 13.3094962 2.66015625 15.8515625 C0.0980207 17.62395745 -1.992232 17.83222775 -5.05859375 17.58203125 C-8.8001617 16.4603137 -10.14799711 14.28581158 -12 11 C-12.14971147 6.65836732 -11.72194213 4.80444981 -8.8125 1.5625 C-5.43724821 -0.31263988 -3.7992366 -0.71235686 0 0 Z M-7.25 3.0625 C-9.34007101 5.00448479 -9.34007101 5.00448479 -9.4375 8.5 C-9.24887668 11.86213565 -9.24887668 11.86213565 -7.875 13.9375 C-5.11019567 15.50422245 -3.11811483 15.38976435 0 15 C2 14 2 14 3 12 C3.5518663 8.29461199 3.49369241 6.67001113 1.25 3.625 C-1.79202238 1.42798384 -3.87419729 1.46837094 -7.25 3.0625 Z " fill="#E8EDF3" transform="translate(136,54)"/>
<path d="M0 0 C0.66 0 1.32 0 2 0 C2.1953125 1.98567708 2.390625 3.97135417 2.5859375 5.95703125 C2.92665391 8.29988142 2.92665391 8.29988142 5 11 C5.125 14.1875 5.125 14.1875 5 17 C4.01 17.33 3.02 17.66 2 18 C2.33 19.32 2.66 20.64 3 22 C0 21 0 21 -1.6875 18.3125 C-3.05851412 14.8523215 -3.40862062 12.67758562 -3 9 C-2.34 8.01 -1.68 7.02 -1 6 C-0.60986284 4.0103005 -0.26797351 2.00980131 0 0 Z " fill="#E1E8EF" transform="translate(117,69)"/>
<path d="M0 0 C0.66 0 1.32 0 2 0 C2 1.32 2 2.64 2 4 C4.97 4 7.94 4 11 4 C10.67 4.66 10.34 5.32 10 6 C9.34 6 8.68 6 8 6 C7.67 6.99 7.34 7.98 7 9 C5.07421875 9.94921875 5.07421875 9.94921875 2.6875 10.6875 C1.90761719 10.93886719 1.12773437 11.19023438 0.32421875 11.44921875 C-2 12 -2 12 -6 12 C-5.125 7.25 -5.125 7.25 -4 5 C-3.34 5 -2.68 5 -2 5 C-1.34 3.35 -0.68 1.7 0 0 Z " fill="#CAE4BF" transform="translate(254,70)"/>
<path d="M0 0 C0 10.06896552 0 10.06896552 -3 14 C-5.61328125 14.6484375 -5.61328125 14.6484375 -8 15 C-8.10815225 13.23050905 -8.18566083 11.45912513 -8.25 9.6875 C-8.29640625 8.70136719 -8.3428125 7.71523438 -8.390625 6.69921875 C-8 4 -8 4 -6.171875 2.14453125 C-4 1 -4 1 -1 1 C-0.67 0.67 -0.34 0.34 0 0 Z " fill="#CFE6C5" transform="translate(260,47)"/>
<path d="M0 0 C0.66 0.33 1.32 0.66 2 1 C1.938125 1.9075 1.87625 2.815 1.8125 3.75 C2.02315801 7.40140544 2.45492876 8.45492876 5 11 C6.64142963 12.0409066 8.30712215 13.04504326 10 14 C12 16 12 16 12.1953125 17.9453125 C12.13020833 19.96354167 12.06510417 21.98177083 12 24 C10.68 24.33 9.36 24.66 8 25 C8.66 24.01 9.32 23.02 10 22 C9.87632919 18.62862616 9.36407211 17.35581338 6.93359375 14.98046875 C6.10988281 14.38878906 5.28617188 13.79710937 4.4375 13.1875 C3.61121094 12.58292969 2.78492188 11.97835937 1.93359375 11.35546875 C1.29550781 10.90816406 0.65742188 10.46085937 0 10 C-0.66 10.66 -1.32 11.32 -2 12 C-2.12117187 11.43410156 -2.24234375 10.86820313 -2.3671875 10.28515625 C-2.61855469 9.18494141 -2.61855469 9.18494141 -2.875 8.0625 C-3.03742188 7.33160156 -3.19984375 6.60070313 -3.3671875 5.84765625 C-3.82961523 3.79299706 -3.82961523 3.79299706 -6 3 C-4.03533587 1.93224776 -2.03144641 0.93446535 0 0 Z " fill="#F2A5AD" transform="translate(213,50)"/>
<path d="M0 0 C0.66 0.33 1.32 0.66 2 1 C1.57053112 3.40502575 1.16517988 4.80609319 -0.4375 6.6875 C-2.42663775 9.63142388 -2.78900319 12.35390624 -3.4609375 15.8046875 C-4.13995742 18.56997152 -5.35940565 20.68825342 -7 23 C-8.74709717 17.69494581 -7.64808992 12.22261383 -6 7 C-4.12161408 5.00203514 -2.49426071 4.24713036 0 3 C0 2.01 0 1.02 0 0 Z " fill="#5BAA37" transform="translate(248,73)"/>
<path d="M0 0 C2 2 2 2 2 6 C1.34 6 0.68 6 0 6 C0 7.32 0 8.64 0 10 C-0.99 10.495 -0.99 10.495 -2 11 C-2 12.32 -2 13.64 -2 15 C-2.66 15 -3.32 15 -4 15 C-4 16.32 -4 17.64 -4 19 C-4.99 19 -5.98 19 -7 19 C-6.28483813 12.20596221 -3.77907446 5.66861169 0 0 Z " fill="#EAF4E6" transform="translate(246,58)"/>
<path d="M0 0 C0 3 0 3 -1.5 4.6875 C-1.995 5.120625 -2.49 5.55375 -3 6 C-2.34 6.66 -1.68 7.32 -1 8 C-3.49092811 9.24546405 -4.41080733 8.7767578 -7 8 C-7.33 8.66 -7.66 9.32 -8 10 C-8.99 10 -9.98 10 -11 10 C-11 7.69 -11 5.38 -11 3 C-9.02 2.34 -7.04 1.68 -5 1 C-5 1.66 -5 2.32 -5 3 C-3.35 2.01 -1.7 1.02 0 0 Z " fill="#B3D8A2" transform="translate(274,60)"/>
<path d="M0 0 C2.625 0.375 2.625 0.375 5 1 C5.625 3.375 5.625 3.375 6 6 C4 8 4 8 1.4375 8.1875 C-1 8 -1 8 -2 7 C-2.1875 4.5625 -2.1875 4.5625 -2 2 C-1.34 1.34 -0.68 0.68 0 0 Z " fill="#46C6EA" transform="translate(284,162)"/>
<path d="M0 0 C0.99 0 1.98 0 3 0 C2.55527344 0.84304687 2.55527344 0.84304687 2.1015625 1.703125 C0.99056497 4.01967305 0.16535294 6.30709092 -0.625 8.75 C-0.88539063 9.54921875 -1.14578125 10.3484375 -1.4140625 11.171875 C-1.60742188 11.77515625 -1.80078125 12.3784375 -2 13 C-1.01 13 -0.02 13 1 13 C1.66 11.68 2.32 10.36 3 9 C3 12 3 12 0.625 14.6875 C-2 17 -2 17 -4 17 C-4 15.68 -4 14.36 -4 13 C-5.65 13 -7.3 13 -9 13 C-9 12.67 -9 12.34 -9 12 C-7.35 12 -5.7 12 -4 12 C-3.896875 11.319375 -3.79375 10.63875 -3.6875 9.9375 C-2.85274981 6.37084011 -1.50527246 3.33777806 0 0 Z " fill="#DAECD3" transform="translate(245,86)"/>
<path d="M0 0 C1.10844919 3.32534757 0.84454356 5.62182575 0 9 C0.99 8.67 1.98 8.34 3 8 C4.21869929 5.49552484 4.21869929 5.49552484 5 3 C6.0318409 5.14966855 6.16076213 6.53102514 5.38671875 8.7890625 C4.40372934 10.75504132 3.46497755 12.35784228 2 14 C-1.25 14.9375 -1.25 14.9375 -4 15 C-3 13 -3 13 0 12 C0.33 11.34 0.66 10.68 1 10 C0.01 9.67 -0.98 9.34 -2 9 C-2.25 3.375 -2.25 3.375 0 0 Z " fill="#DEE6EE" transform="translate(146,77)"/>
<path d="M0 0 C0 0.66 0 1.32 0 2 C0.66 2.66 1.32 3.32 2 4 C-2.95 5.65 -7.9 7.3 -13 9 C-13 8.34 -13 7.68 -13 7 C-10.6640625 5.2734375 -10.6640625 5.2734375 -7.625 3.375 C-6.62726563 2.74335937 -5.62953125 2.11171875 -4.6015625 1.4609375 C-2 0 -2 0 0 0 Z " fill="#72D3EF" transform="translate(89,122)"/>
<path d="M0 0 C-1.485 1.485 -1.485 1.485 -3 3 C-2.67 3.66 -2.34 4.32 -2 5 C-5.22791555 7.1519437 -6.28400809 7.20086443 -10 7 C-10 6.34 -10 5.68 -10 5 C-9.01 5 -8.02 5 -7 5 C-7.66 3.35 -8.32 1.7 -9 0 C-5.52176885 -1.15941038 -3.54104422 -0.70820884 0 0 Z " fill="#E4F1DF" transform="translate(273,82)"/>
<path d="M0 0 C-0.3125 2.375 -0.3125 2.375 -1 5 C-4 7 -4 7 -7 7 C-7.1875 4.625 -7.1875 4.625 -7 2 C-4 0 -4 0 0 0 Z " fill="#DAECD2" transform="translate(259,55)"/>
<path d="M0 0 C0.66 1.32 1.32 2.64 2 4 C2.66 4 3.32 4 4 4 C3.67 5.65 3.34 7.3 3 9 C1.68 8.67 0.36 8.34 -1 8 C-1.04241723 5.66705225 -1.04092937 3.33297433 -1 1 C-0.67 0.67 -0.34 0.34 0 0 Z " fill="#194F87" transform="translate(117,77)"/>
<path d="M0 0 C0.66 0 1.32 0 2 0 C2 3.3 2 6.6 2 10 C1.34 9.67 0.68 9.34 0 9 C-0.33 10.65 -0.66 12.3 -1 14 C-1.66 13.01 -2.32 12.02 -3 11 C-2.1875 8.6875 -2.1875 8.6875 -1 6 C-0.62406934 4.0075675 -0.28020455 2.0081326 0 0 Z " fill="#C9D5E2" transform="translate(117,69)"/>
<path d="M0 0 C1.32 0.66 2.64 1.32 4 2 C0.67692308 5.93846154 0.67692308 5.93846154 -2.75 6.25 C-3.4925 6.1675 -4.235 6.085 -5 6 C-4.67 5.01 -4.34 4.02 -4 3 C-3.01 3 -2.02 3 -1 3 C-0.67 2.01 -0.34 1.02 0 0 Z " fill="#E6F2E1" transform="translate(267,67)"/>
<path d="M0 0 C1.670625 0.8971875 1.670625 0.8971875 3.375 1.8125 C4.00148438 2.14894531 4.62796875 2.48539062 5.2734375 2.83203125 C7 4 7 4 9 7 C7.39402675 6.54803755 5.79027492 6.08817673 4.1875 5.625 C3.29417969 5.36976563 2.40085937 5.11453125 1.48046875 4.8515625 C-1 4 -1 4 -4 2 C-2.68 2 -1.36 2 0 2 C0 1.34 0 0.68 0 0 Z " fill="#86DAF1" transform="translate(305,124)"/>
<path d="M0 0 C0.66 0.33 1.32 0.66 2 1 C2 3.31 2 5.62 2 8 C0.68 8.33 -0.64 8.66 -2 9 C-3 6 -3 6 -1.5625 2.8125 C-1.046875 1.884375 -0.53125 0.95625 0 0 Z " fill="#104882" transform="translate(148,77)"/>
<path d="M0 0 C0.66 0.33 1.32 0.66 2 1 C1.16855469 1.81404297 1.16855469 1.81404297 0.3203125 2.64453125 C-0.76636719 3.71767578 -0.76636719 3.71767578 -1.875 4.8125 C-2.59429687 5.52019531 -3.31359375 6.22789062 -4.0546875 6.95703125 C-6.15358937 9.04399194 -6.15358937 9.04399194 -8 12 C-7.55396127 6.94489444 -5.35299176 4.59833262 -2 1 C-1.34 0.67 -0.68 0.34 0 0 Z " fill="#5B81A9" transform="translate(74,137)"/>
<path d="M0 0 C2.125 0.375 2.125 0.375 4 1 C3.75 2.875 3.75 2.875 3 5 C0.9375 6.25 0.9375 6.25 -1 7 C-1.625 4.625 -1.625 4.625 -2 2 C-1.34 1.34 -0.68 0.68 0 0 Z " fill="#EEF6EA" transform="translate(245,72)"/>
<path d="M0 0 C0.33 0 0.66 0 1 0 C1.67258667 2.33163378 2.33847444 4.6652039 3 7 C3.2475 7.7425 3.495 8.485 3.75 9.25 C4 11 4 11 2 14 C1.67 12.35 1.34 10.7 1 9 C0.01 9.495 0.01 9.495 -1 10 C-0.67 6.7 -0.34 3.4 0 0 Z " fill="#BDCCDC" transform="translate(148,69)"/>
<path d="M0 0 C0.33 0.99 0.66 1.98 1 3 C-1.1385485 5.1385485 -2.13275314 5.42655063 -5 6 C-5 6.66 -5 7.32 -5 8 C-5.66 8 -6.32 8 -7 8 C-7 7.01 -7 6.02 -7 5 C-5.46875 3.61328125 -5.46875 3.61328125 -3.5 2.3125 C-2.8503125 1.87550781 -2.200625 1.43851562 -1.53125 0.98828125 C-1.0259375 0.66214844 -0.520625 0.33601563 0 0 Z " fill="#E8F3E4" transform="translate(256,86)"/>
<path d="M0 0 C0.99 0 1.98 0 3 0 C2.72510809 4.03174806 2.46508424 5.56894631 -0.5625 8.375 C-1.366875 8.91125 -2.17125 9.4475 -3 10 C-2.21302675 6.58978257 -1.12880057 3.31114834 0 0 Z " fill="#D5DFE9" transform="translate(139,61)"/>
<path d="M0 0 C0 3 0 3 -2.375 5.6875 C-5 8 -5 8 -7 8 C-7 6.68 -7 5.36 -7 4 C-5.35 4 -3.7 4 -2 4 C-1.34 2.68 -0.68 1.36 0 0 Z " fill="#F3F9F0" transform="translate(248,95)"/>
<path d="M0 0 C4.95 0.99 4.95 0.99 10 2 C10 2.66 10 3.32 10 4 C6.6875 4.25 6.6875 4.25 3 4 C2.01 2.68 1.02 1.36 0 0 Z " fill="#F0F3F7" transform="translate(126,67)"/>
<path d="M0 0 C2 2 2 2 2 6 C0.35 6.66 -1.3 7.32 -3 8 C-2.45276317 4.62537285 -1.9451 2.91765 0 0 Z " fill="#E2F0DC" transform="translate(246,58)"/>
<path d="M0 0 C0.66 0.33 1.32 0.66 2 1 C-0.64 3.64 -3.28 6.28 -6 9 C-6 6 -6 6 -3.5625 3.375 C-2.716875 2.59125 -1.87125 1.8075 -1 1 C-0.67 0.67 -0.34 0.34 0 0 Z " fill="#6DD2EF" transform="translate(342,137)"/>
<path d="M0 0 C0.33 0 0.66 0 1 0 C1.33 2.64 1.66 5.28 2 8 C1.01 8 0.02 8 -1 8 C-1.625 5.125 -1.625 5.125 -2 2 C-1.34 1.34 -0.68 0.68 0 0 Z " fill="#DAE3EB" transform="translate(126,59)"/>
<path d="M0 0 C-1 3 -1 3 -2.875 4.125 C-4.55705727 4.81761182 -6.27427551 5.4247585 -8 6 C-6.24081631 1.94034532 -4.71412298 0 0 0 Z " fill="#FDD566" transform="translate(175,50)"/>
<path d="M0 0 C-1.49097658 3.7952131 -3.75700849 5.61042731 -7 8 C-4.18918919 0 -4.18918919 0 0 0 Z " fill="#6C8FB3" transform="translate(247,138)"/>
<path d="M0 0 C-1.49097658 3.7952131 -3.75700849 5.61042731 -7 8 C-4.18918919 0 -4.18918919 0 0 0 Z " fill="#6F92B5" transform="translate(17,138)"/>
<path d="M0 0 C0.66 0.33 1.32 0.66 2 1 C-0.31 3.31 -2.62 5.62 -5 8 C-5 5 -5 5 -2.5 2.3125 C-1.675 1.549375 -0.85 0.78625 0 0 Z " fill="#6AD1EE" transform="translate(371,137)"/>
<path d="M0 0 C0.66 0.33 1.32 0.66 2 1 C-0.31 3.31 -2.62 5.62 -5 8 C-5 5 -5 5 -2.5 2.3125 C-1.675 1.549375 -0.85 0.78625 0 0 Z " fill="#6D8FB3" transform="translate(103,137)"/>
<path d="M0 0 C0.33 0 0.66 0 1 0 C1.2493357 1.60115576 1.47378648 3.20620159 1.6875 4.8125 C1.87892578 6.15248047 1.87892578 6.15248047 2.07421875 7.51953125 C2 10 2 10 -1 13 C-0.67 8.71 -0.34 4.42 0 0 Z " fill="#90C678" transform="translate(241,83)"/>
<path d="M0 0 C0 3 0 3 -1.3125 4.6875 C-3 6 -3 6 -6 6 C-4.75453595 2.26360784 -3.36595047 1.81243487 0 0 Z " fill="#E1EFDA" transform="translate(274,60)"/>
</svg>
